<svg width="30" height="30" viewBox="0 0 30 30" fill="none" xmlns="http://www.w3.org/2000/svg">
<path d="M15 0C23.2857 0 30 6.71752 30 15C30 23.2857 23.2857 30 15 30C6.71752 30 0 23.2857 0 15C0 6.71752 6.71752 0 15 0ZM15 5.00213C9.48261 5.00213 5.00213 9.48261 5.00213 15C5.00213 20.5174 9.48261 25.0011 15 25.0011C20.5174 25.0011 25.0011 20.5174 25.0011 15C25.0011 9.48261 20.5174 5.00213 15 5.00213ZM15 5.86943C20.0469 5.86943 24.1306 9.95306 24.1306 15C24.1306 20.0469 20.0469 24.1306 15 24.1306C14.0783 24.1306 13.1854 23.993 12.3469 23.7401C12.7214 23.1129 13.2046 22.22 13.3966 21.4807C13.5086 21.0454 13.9791 19.2597 13.9791 19.2597C14.2831 19.8421 15.1728 20.3318 16.1201 20.3318C18.9396 20.3318 20.9718 17.7395 20.9718 14.5199C20.9718 11.4284 18.45 9.12097 15.208 9.12097C11.1724 9.12097 9.03136 11.8285 9.03136 14.776C9.03136 16.1457 9.76104 17.8547 10.9292 18.3988C11.1052 18.4788 11.2012 18.4436 11.2428 18.2739C11.2716 18.1427 11.4316 17.5091 11.502 17.2146C11.5244 17.1186 11.5116 17.0386 11.438 16.9458C11.0508 16.4754 10.7403 15.6145 10.7403 14.8112C10.7403 12.7502 12.3021 10.7531 14.9616 10.7531C17.2562 10.7531 18.866 12.3181 18.866 14.5584C18.866 17.0866 17.5891 18.8372 15.9281 18.8372C15.0096 18.8372 14.3215 18.0787 14.5424 17.1474C14.808 16.0369 15.3168 14.84 15.3168 14.0367C15.3168 13.3198 14.9328 12.7214 14.1327 12.7214C13.195 12.7214 12.4429 13.6911 12.4429 14.9904C12.4429 15.8161 12.7246 16.3761 12.7246 16.3761C12.7246 16.3761 11.7965 20.2934 11.6268 21.023C11.4572 21.7527 11.502 22.7352 11.5724 23.4649C8.22808 22.1112 5.86943 18.834 5.86943 15C5.86943 9.95306 9.95306 5.86943 15 5.86943Z" fill="#F8FDFF"/>
</svg>
