<?xml version="1.0" encoding="UTF-8"?>
<!DOCTYPE svg PUBLIC "-//W3C//DTD SVG 1.1//EN" "http://www.w3.org/Graphics/SVG/1.1/DTD/svg11.dtd">
<!-- Creator: CorelDRAW 2019 (64-Bit) -->
<svg xmlns="http://www.w3.org/2000/svg" xml:space="preserve" width="2480px" height="3508px" version="1.1" shape-rendering="geometricPrecision" text-rendering="geometricPrecision" image-rendering="optimizeQuality" fill-rule="evenodd" clip-rule="evenodd"
viewBox="0 0 248000 350743"
 xmlns:xlink="http://www.w3.org/1999/xlink"
 xmlns:xodm="http://www.corel.com/coreldraw/odm/2003">
 <g id="Слой_x0020_1">
  <metadata id="CorelCorpID_0Corel-Layer"/>
  <path fill="#F8FDFF" fill-rule="nonzero" d="M132241 167911c2589,0 4687,2099 4687,4687 0,2589 -2098,4687 -4687,4687 -2588,0 -4687,-2098 -4687,-4687 0,-2588 2099,-4687 4687,-4687zm0 1563c-1724,0 -3124,1400 -3124,3124 0,1724 1400,3125 3124,3125 1724,0 3125,-1401 3125,-3125 0,-1724 -1401,-3124 -3125,-3124zm0 271c1577,0 2853,1276 2853,2853 0,1577 -1276,2853 -2853,2853 -288,0 -567,-43 -829,-122 117,-196 268,-475 328,-706 35,-136 182,-694 182,-694 95,182 373,335 669,335 881,0 1516,-810 1516,-1816 0,-966 -788,-1687 -1801,-1687 -1261,0 -1930,846 -1930,1767 0,428 228,962 593,1132 55,25 85,14 98,-39 9,-41 59,-239 81,-331 7,-30 3,-55 -20,-84 -121,-147 -218,-416 -218,-667 0,-644 488,-1268 1319,-1268 717,0 1220,489 1220,1189 0,790 -399,1337 -918,1337 -287,0 -502,-237 -433,-528 83,-347 242,-721 242,-972 0,-224 -120,-411 -370,-411 -293,0 -528,303 -528,709 0,258 88,433 88,433 0,0 -290,1224 -343,1452 -53,228 -39,535 -17,763 -1045,-423 -1782,-1447 -1782,-2645 0,-1577 1276,-2853 2853,-2853z"/>
 </g>
</svg>
